<?xml version="1.0" standalone="no"?>
 <!DOCTYPE svg PUBLIC "-//W3C//DTD SVG 1.1//EN" 
 "http://www.w3.org/Graphics/SVG/1.1/DTD/svg11.dtd"> 
<svg
  xmlns:svg="http://www.w3.org/2000/svg"
  xmlns="http://www.w3.org/2000/svg"
  xmlns:xlink="http://www.w3.org/1999/xlink"
  version="1.1"
  width="297.0022mm" height="210.0072mm" viewBox="0.0000 0.0000 297.0022 210.0072">
<title>SVG Image created as template_project_kicad-F_Fab.svg date 2023/12/14 10:00:37 </title>
  <desc>Image generated by PCBNEW </desc>
<g style="fill:#000000; fill-opacity:1.0000;stroke:#000000; stroke-opacity:1.0000;
stroke-linecap:round; stroke-linejoin:round;"
 transform="translate(0 0) scale(1 1)">
</g>
<g style="fill:#000000; fill-opacity:0.0; 
stroke:#000000; stroke-width:0.0000; stroke-opacity:1; 
stroke-linecap:round; stroke-linejoin:round;">
</g>
<g style="fill:#000000; fill-opacity:0.0; 
stroke:#000000; stroke-width:0.1500; stroke-opacity:1; 
stroke-linecap:round; stroke-linejoin:round;">
<text x="104.4400" y="97.0200"
textLength="4.5357" font-size="1.3333" lengthAdjust="spacingAndGlyphs"
text-anchor="middle" opacity="0">REF**</text>
<g class="stroked-text"><desc>REF**</desc>
<path d="M103.1067 96.9748
L102.7733 96.4986
" />
<path d="M102.5352 96.9748
L102.5352 95.9748
" />
<path d="M102.5352 95.9748
L102.9162 95.9748
" />
<path d="M102.9162 95.9748
L103.0114 96.0224
" />
<path d="M103.0114 96.0224
L103.0590 96.0701
" />
<path d="M103.0590 96.0701
L103.1067 96.1653
" />
<path d="M103.1067 96.1653
L103.1067 96.3082
" />
<path d="M103.1067 96.3082
L103.0590 96.4034
" />
<path d="M103.0590 96.4034
L103.0114 96.4510
" />
<path d="M103.0114 96.4510
L102.9162 96.4986
" />
<path d="M102.9162 96.4986
L102.5352 96.4986
" />
<path d="M103.5352 96.4510
L103.8686 96.4510
" />
<path d="M104.0114 96.9748
L103.5352 96.9748
" />
<path d="M103.5352 96.9748
L103.5352 95.9748
" />
<path d="M103.5352 95.9748
L104.0114 95.9748
" />
<path d="M104.7733 96.4510
L104.4400 96.4510
" />
<path d="M104.4400 96.9748
L104.4400 95.9748
" />
<path d="M104.4400 95.9748
L104.9162 95.9748
" />
<path d="M105.4400 95.9748
L105.4400 96.2129
" />
<path d="M105.2019 96.1177
L105.4400 96.2129
" />
<path d="M105.4400 96.2129
L105.6781 96.1177
" />
<path d="M105.2971 96.4034
L105.4400 96.2129
" />
<path d="M105.4400 96.2129
L105.5829 96.4034
" />
<path d="M106.2019 95.9748
L106.2019 96.2129
" />
<path d="M105.9638 96.1177
L106.2019 96.2129
" />
<path d="M106.2019 96.2129
L106.4400 96.1177
" />
<path d="M106.0590 96.4034
L106.2019 96.2129
" />
<path d="M106.2019 96.2129
L106.3448 96.4034
" />
</g><g transform="rotate(-90.000000 107.1000 69.8500)">
<text x="107.1000" y="70.3500"
textLength="2.9643" font-size="1.3333" lengthAdjust="spacingAndGlyphs"
text-anchor="middle" opacity="0">LED</text>
</g>
<g class="stroked-text"><desc>LED</desc>
<path d="M107.5548 70.4929
L107.5548 70.9690
" />
<path d="M107.5548 70.9690
L106.5548 70.9690
" />
<path d="M107.0310 70.1595
L107.0310 69.8262
" />
<path d="M107.5548 69.6833
L107.5548 70.1595
" />
<path d="M107.5548 70.1595
L106.5548 70.1595
" />
<path d="M106.5548 70.1595
L106.5548 69.6833
" />
<path d="M107.5548 69.2548
L106.5548 69.2548
" />
<path d="M106.5548 69.2548
L106.5548 69.0167
" />
<path d="M106.5548 69.0167
L106.6024 68.8738
" />
<path d="M106.6024 68.8738
L106.6977 68.7786
" />
<path d="M106.6977 68.7786
L106.7929 68.7310
" />
<path d="M106.7929 68.7310
L106.9834 68.6833
" />
<path d="M106.9834 68.6833
L107.1262 68.6833
" />
<path d="M107.1262 68.6833
L107.3167 68.7310
" />
<path d="M107.3167 68.7310
L107.4120 68.7786
" />
<path d="M107.4120 68.7786
L107.5072 68.8738
" />
<path d="M107.5072 68.8738
L107.5548 69.0167
" />
<path d="M107.5548 69.0167
L107.5548 69.2548
" />
</g><text x="106.6800" y="78.6200"
textLength="3.1071" font-size="1.3333" lengthAdjust="spacingAndGlyphs"
text-anchor="middle" opacity="0">150</text>
<g class="stroked-text"><desc>150</desc>
<path d="M106.0133 78.5748
L105.4419 78.5748
" />
<path d="M105.7276 78.5748
L105.7276 77.5748
" />
<path d="M105.7276 77.5748
L105.6324 77.7177
" />
<path d="M105.6324 77.7177
L105.5371 77.8129
" />
<path d="M105.5371 77.8129
L105.4419 77.8605
" />
<path d="M106.9181 77.5748
L106.4419 77.5748
" />
<path d="M106.4419 77.5748
L106.3943 78.0510
" />
<path d="M106.3943 78.0510
L106.4419 78.0034
" />
<path d="M106.4419 78.0034
L106.5371 77.9558
" />
<path d="M106.5371 77.9558
L106.7752 77.9558
" />
<path d="M106.7752 77.9558
L106.8705 78.0034
" />
<path d="M106.8705 78.0034
L106.9181 78.0510
" />
<path d="M106.9181 78.0510
L106.9657 78.1462
" />
<path d="M106.9657 78.1462
L106.9657 78.3843
" />
<path d="M106.9657 78.3843
L106.9181 78.4796
" />
<path d="M106.9181 78.4796
L106.8705 78.5272
" />
<path d="M106.8705 78.5272
L106.7752 78.5748
" />
<path d="M106.7752 78.5748
L106.5371 78.5748
" />
<path d="M106.5371 78.5748
L106.4419 78.5272
" />
<path d="M106.4419 78.5272
L106.3943 78.4796
" />
<path d="M107.5848 77.5748
L107.6800 77.5748
" />
<path d="M107.6800 77.5748
L107.7752 77.6224
" />
<path d="M107.7752 77.6224
L107.8229 77.6701
" />
<path d="M107.8229 77.6701
L107.8705 77.7653
" />
<path d="M107.8705 77.7653
L107.9181 77.9558
" />
<path d="M107.9181 77.9558
L107.9181 78.1939
" />
<path d="M107.9181 78.1939
L107.8705 78.3843
" />
<path d="M107.8705 78.3843
L107.8229 78.4796
" />
<path d="M107.8229 78.4796
L107.7752 78.5272
" />
<path d="M107.7752 78.5272
L107.6800 78.5748
" />
<path d="M107.6800 78.5748
L107.5848 78.5748
" />
<path d="M107.5848 78.5748
L107.4895 78.5272
" />
<path d="M107.4895 78.5272
L107.4419 78.4796
" />
<path d="M107.4419 78.4796
L107.3943 78.3843
" />
<path d="M107.3943 78.3843
L107.3467 78.1939
" />
<path d="M107.3467 78.1939
L107.3467 77.9558
" />
<path d="M107.3467 77.9558
L107.3943 77.7653
" />
<path d="M107.3943 77.7653
L107.4419 77.6701
" />
<path d="M107.4419 77.6701
L107.4895 77.6224
" />
<path d="M107.4895 77.6224
L107.5848 77.5748
" />
</g></g>
<g style="fill:#000000; fill-opacity:0.0; 
stroke:#000000; stroke-width:0.1080; stroke-opacity:1; 
stroke-linecap:round; stroke-linejoin:round;">
<text x="106.6800" y="76.5600"
textLength="1.5857" font-size="0.9600" lengthAdjust="spacingAndGlyphs"
text-anchor="middle" opacity="0">R2</text>
<g class="stroked-text"><desc>R2</desc>
<path d="M106.5600 76.5275
L106.3200 76.1846
" />
<path d="M106.1486 76.5275
L106.1486 75.8075
" />
<path d="M106.1486 75.8075
L106.4229 75.8075
" />
<path d="M106.4229 75.8075
L106.4914 75.8418
" />
<path d="M106.4914 75.8418
L106.5257 75.8760
" />
<path d="M106.5257 75.8760
L106.5600 75.9446
" />
<path d="M106.5600 75.9446
L106.5600 76.0475
" />
<path d="M106.5600 76.0475
L106.5257 76.1160
" />
<path d="M106.5257 76.1160
L106.4914 76.1503
" />
<path d="M106.4914 76.1503
L106.4229 76.1846
" />
<path d="M106.4229 76.1846
L106.1486 76.1846
" />
<path d="M106.8343 75.8760
L106.8686 75.8418
" />
<path d="M106.8686 75.8418
L106.9371 75.8075
" />
<path d="M106.9371 75.8075
L107.1086 75.8075
" />
<path d="M107.1086 75.8075
L107.1771 75.8418
" />
<path d="M107.1771 75.8418
L107.2114 75.8760
" />
<path d="M107.2114 75.8760
L107.2457 75.9446
" />
<path d="M107.2457 75.9446
L107.2457 76.0132
" />
<path d="M107.2457 76.0132
L107.2114 76.1160
" />
<path d="M107.2114 76.1160
L106.8000 76.5275
" />
<path d="M106.8000 76.5275
L107.2457 76.5275
" />
</g></g>
<g style="fill:#000000; fill-opacity:0.0; 
stroke:#000000; stroke-width:0.1500; stroke-opacity:1; 
stroke-linecap:round; stroke-linejoin:round;">
<text x="147.6200" y="97.0200"
textLength="4.5357" font-size="1.3333" lengthAdjust="spacingAndGlyphs"
text-anchor="middle" opacity="0">REF**</text>
<g class="stroked-text"><desc>REF**</desc>
<path d="M146.2867 96.9748
L145.9533 96.4986
" />
<path d="M145.7152 96.9748
L145.7152 95.9748
" />
<path d="M145.7152 95.9748
L146.0962 95.9748
" />
<path d="M146.0962 95.9748
L146.1914 96.0224
" />
<path d="M146.1914 96.0224
L146.2390 96.0701
" />
<path d="M146.2390 96.0701
L146.2867 96.1653
" />
<path d="M146.2867 96.1653
L146.2867 96.3082
" />
<path d="M146.2867 96.3082
L146.2390 96.4034
" />
<path d="M146.2390 96.4034
L146.1914 96.4510
" />
<path d="M146.1914 96.4510
L146.0962 96.4986
" />
<path d="M146.0962 96.4986
L145.7152 96.4986
" />
<path d="M146.7152 96.4510
L147.0486 96.4510
" />
<path d="M147.1914 96.9748
L146.7152 96.9748
" />
<path d="M146.7152 96.9748
L146.7152 95.9748
" />
<path d="M146.7152 95.9748
L147.1914 95.9748
" />
<path d="M147.9533 96.4510
L147.6200 96.4510
" />
<path d="M147.6200 96.9748
L147.6200 95.9748
" />
<path d="M147.6200 95.9748
L148.0962 95.9748
" />
<path d="M148.6200 95.9748
L148.6200 96.2129
" />
<path d="M148.3819 96.1177
L148.6200 96.2129
" />
<path d="M148.6200 96.2129
L148.8581 96.1177
" />
<path d="M148.4771 96.4034
L148.6200 96.2129
" />
<path d="M148.6200 96.2129
L148.7629 96.4034
" />
<path d="M149.3819 95.9748
L149.3819 96.2129
" />
<path d="M149.1438 96.1177
L149.3819 96.2129
" />
<path d="M149.3819 96.2129
L149.6200 96.1177
" />
<path d="M149.2390 96.4034
L149.3819 96.2129
" />
<path d="M149.3819 96.2129
L149.5248 96.4034
" />
</g><text x="104.4400" y="56.3800"
textLength="4.5357" font-size="1.3333" lengthAdjust="spacingAndGlyphs"
text-anchor="middle" opacity="0">REF**</text>
<g class="stroked-text"><desc>REF**</desc>
<path d="M103.1067 56.3348
L102.7733 55.8586
" />
<path d="M102.5352 56.3348
L102.5352 55.3348
" />
<path d="M102.5352 55.3348
L102.9162 55.3348
" />
<path d="M102.9162 55.3348
L103.0114 55.3824
" />
<path d="M103.0114 55.3824
L103.0590 55.4301
" />
<path d="M103.0590 55.4301
L103.1067 55.5253
" />
<path d="M103.1067 55.5253
L103.1067 55.6682
" />
<path d="M103.1067 55.6682
L103.0590 55.7634
" />
<path d="M103.0590 55.7634
L103.0114 55.8110
" />
<path d="M103.0114 55.8110
L102.9162 55.8586
" />
<path d="M102.9162 55.8586
L102.5352 55.8586
" />
<path d="M103.5352 55.8110
L103.8686 55.8110
" />
<path d="M104.0114 56.3348
L103.5352 56.3348
" />
<path d="M103.5352 56.3348
L103.5352 55.3348
" />
<path d="M103.5352 55.3348
L104.0114 55.3348
" />
<path d="M104.7733 55.8110
L104.4400 55.8110
" />
<path d="M104.4400 56.3348
L104.4400 55.3348
" />
<path d="M104.4400 55.3348
L104.9162 55.3348
" />
<path d="M105.4400 55.3348
L105.4400 55.5729
" />
<path d="M105.2019 55.4777
L105.4400 55.5729
" />
<path d="M105.4400 55.5729
L105.6781 55.4777
" />
<path d="M105.2971 55.7634
L105.4400 55.5729
" />
<path d="M105.4400 55.5729
L105.5829 55.7634
" />
<path d="M106.2019 55.3348
L106.2019 55.5729
" />
<path d="M105.9638 55.4777
L106.2019 55.5729
" />
<path d="M106.2019 55.5729
L106.4400 55.4777
" />
<path d="M106.0590 55.7634
L106.2019 55.5729
" />
<path d="M106.2019 55.5729
L106.3448 55.7634
" />
</g><text x="147.6200" y="56.3800"
textLength="4.5357" font-size="1.3333" lengthAdjust="spacingAndGlyphs"
text-anchor="middle" opacity="0">REF**</text>
<g class="stroked-text"><desc>REF**</desc>
<path d="M146.2867 56.3348
L145.9533 55.8586
" />
<path d="M145.7152 56.3348
L145.7152 55.3348
" />
<path d="M145.7152 55.3348
L146.0962 55.3348
" />
<path d="M146.0962 55.3348
L146.1914 55.3824
" />
<path d="M146.1914 55.3824
L146.2390 55.4301
" />
<path d="M146.2390 55.4301
L146.2867 55.5253
" />
<path d="M146.2867 55.5253
L146.2867 55.6682
" />
<path d="M146.2867 55.6682
L146.2390 55.7634
" />
<path d="M146.2390 55.7634
L146.1914 55.8110
" />
<path d="M146.1914 55.8110
L146.0962 55.8586
" />
<path d="M146.0962 55.8586
L145.7152 55.8586
" />
<path d="M146.7152 55.8110
L147.0486 55.8110
" />
<path d="M147.1914 56.3348
L146.7152 56.3348
" />
<path d="M146.7152 56.3348
L146.7152 55.3348
" />
<path d="M146.7152 55.3348
L147.1914 55.3348
" />
<path d="M147.9533 55.8110
L147.6200 55.8110
" />
<path d="M147.6200 56.3348
L147.6200 55.3348
" />
<path d="M147.6200 55.3348
L148.0962 55.3348
" />
<path d="M148.6200 55.3348
L148.6200 55.5729
" />
<path d="M148.3819 55.4777
L148.6200 55.5729
" />
<path d="M148.6200 55.5729
L148.8581 55.4777
" />
<path d="M148.4771 55.7634
L148.6200 55.5729
" />
<path d="M148.6200 55.5729
L148.7629 55.7634
" />
<path d="M149.3819 55.3348
L149.3819 55.5729
" />
<path d="M149.1438 55.4777
L149.3819 55.5729
" />
<path d="M149.3819 55.5729
L149.6200 55.4777
" />
<path d="M149.2390 55.7634
L149.3819 55.5729
" />
<path d="M149.3819 55.5729
L149.5248 55.7634
" />
</g><text x="125.7300" y="42.4100"
textLength="13.5833" font-size="1.3333" lengthAdjust="spacingAndGlyphs"
text-anchor="middle" opacity="0">RaspberryPi-Pico</text>
<g class="stroked-text"><desc>RaspberryPi-Pico</desc>
<path d="M119.8729 42.3648
L119.5395 41.8886
" />
<path d="M119.3014 42.3648
L119.3014 41.3648
" />
<path d="M119.3014 41.3648
L119.6824 41.3648
" />
<path d="M119.6824 41.3648
L119.7776 41.4124
" />
<path d="M119.7776 41.4124
L119.8252 41.4601
" />
<path d="M119.8252 41.4601
L119.8729 41.5553
" />
<path d="M119.8729 41.5553
L119.8729 41.6982
" />
<path d="M119.8729 41.6982
L119.8252 41.7934
" />
<path d="M119.8252 41.7934
L119.7776 41.8410
" />
<path d="M119.7776 41.8410
L119.6824 41.8886
" />
<path d="M119.6824 41.8886
L119.3014 41.8886
" />
<path d="M120.7300 42.3648
L120.7300 41.8410
" />
<path d="M120.7300 41.8410
L120.6824 41.7458
" />
<path d="M120.6824 41.7458
L120.5871 41.6982
" />
<path d="M120.5871 41.6982
L120.3967 41.6982
" />
<path d="M120.3967 41.6982
L120.3014 41.7458
" />
<path d="M120.7300 42.3172
L120.6348 42.3648
" />
<path d="M120.6348 42.3648
L120.3967 42.3648
" />
<path d="M120.3967 42.3648
L120.3014 42.3172
" />
<path d="M120.3014 42.3172
L120.2538 42.2220
" />
<path d="M120.2538 42.2220
L120.2538 42.1267
" />
<path d="M120.2538 42.1267
L120.3014 42.0315
" />
<path d="M120.3014 42.0315
L120.3967 41.9839
" />
<path d="M120.3967 41.9839
L120.6348 41.9839
" />
<path d="M120.6348 41.9839
L120.7300 41.9362
" />
<path d="M121.1586 42.3172
L121.2538 42.3648
" />
<path d="M121.2538 42.3648
L121.4443 42.3648
" />
<path d="M121.4443 42.3648
L121.5395 42.3172
" />
<path d="M121.5395 42.3172
L121.5871 42.2220
" />
<path d="M121.5871 42.2220
L121.5871 42.1743
" />
<path d="M121.5871 42.1743
L121.5395 42.0791
" />
<path d="M121.5395 42.0791
L121.4443 42.0315
" />
<path d="M121.4443 42.0315
L121.3014 42.0315
" />
<path d="M121.3014 42.0315
L121.2062 41.9839
" />
<path d="M121.2062 41.9839
L121.1586 41.8886
" />
<path d="M121.1586 41.8886
L121.1586 41.8410
" />
<path d="M121.1586 41.8410
L121.2062 41.7458
" />
<path d="M121.2062 41.7458
L121.3014 41.6982
" />
<path d="M121.3014 41.6982
L121.4443 41.6982
" />
<path d="M121.4443 41.6982
L121.5395 41.7458
" />
<path d="M122.0157 41.6982
L122.0157 42.6982
" />
<path d="M122.0157 41.7458
L122.1110 41.6982
" />
<path d="M122.1110 41.6982
L122.3014 41.6982
" />
<path d="M122.3014 41.6982
L122.3967 41.7458
" />
<path d="M122.3967 41.7458
L122.4443 41.7934
" />
<path d="M122.4443 41.7934
L122.4919 41.8886
" />
<path d="M122.4919 41.8886
L122.4919 42.1743
" />
<path d="M122.4919 42.1743
L122.4443 42.2696
" />
<path d="M122.4443 42.2696
L122.3967 42.3172
" />
<path d="M122.3967 42.3172
L122.3014 42.3648
" />
<path d="M122.3014 42.3648
L122.1110 42.3648
" />
<path d="M122.1110 42.3648
L122.0157 42.3172
" />
<path d="M122.9205 42.3648
L122.9205 41.3648
" />
<path d="M122.9205 41.7458
L123.0157 41.6982
" />
<path d="M123.0157 41.6982
L123.2062 41.6982
" />
<path d="M123.2062 41.6982
L123.3014 41.7458
" />
<path d="M123.3014 41.7458
L123.3490 41.7934
" />
<path d="M123.3490 41.7934
L123.3967 41.8886
" />
<path d="M123.3967 41.8886
L123.3967 42.1743
" />
<path d="M123.3967 42.1743
L123.3490 42.2696
" />
<path d="M123.3490 42.2696
L123.3014 42.3172
" />
<path d="M123.3014 42.3172
L123.2062 42.3648
" />
<path d="M123.2062 42.3648
L123.0157 42.3648
" />
<path d="M123.0157 42.3648
L122.9205 42.3172
" />
<path d="M124.2062 42.3172
L124.1110 42.3648
" />
<path d="M124.1110 42.3648
L123.9205 42.3648
" />
<path d="M123.9205 42.3648
L123.8252 42.3172
" />
<path d="M123.8252 42.3172
L123.7776 42.2220
" />
<path d="M123.7776 42.2220
L123.7776 41.8410
" />
<path d="M123.7776 41.8410
L123.8252 41.7458
" />
<path d="M123.8252 41.7458
L123.9205 41.6982
" />
<path d="M123.9205 41.6982
L124.1110 41.6982
" />
<path d="M124.1110 41.6982
L124.2062 41.7458
" />
<path d="M124.2062 41.7458
L124.2538 41.8410
" />
<path d="M124.2538 41.8410
L124.2538 41.9362
" />
<path d="M124.2538 41.9362
L123.7776 42.0315
" />
<path d="M124.6824 42.3648
L124.6824 41.6982
" />
<path d="M124.6824 41.8886
L124.7300 41.7934
" />
<path d="M124.7300 41.7934
L124.7776 41.7458
" />
<path d="M124.7776 41.7458
L124.8729 41.6982
" />
<path d="M124.8729 41.6982
L124.9681 41.6982
" />
<path d="M125.3014 42.3648
L125.3014 41.6982
" />
<path d="M125.3014 41.8886
L125.3490 41.7934
" />
<path d="M125.3490 41.7934
L125.3967 41.7458
" />
<path d="M125.3967 41.7458
L125.4919 41.6982
" />
<path d="M125.4919 41.6982
L125.5871 41.6982
" />
<path d="M125.8252 41.6982
L126.0633 42.3648
" />
<path d="M126.3014 41.6982
L126.0633 42.3648
" />
<path d="M126.0633 42.3648
L125.9681 42.6029
" />
<path d="M125.9681 42.6029
L125.9205 42.6505
" />
<path d="M125.9205 42.6505
L125.8252 42.6982
" />
<path d="M126.6824 42.3648
L126.6824 41.3648
" />
<path d="M126.6824 41.3648
L127.0633 41.3648
" />
<path d="M127.0633 41.3648
L127.1586 41.4124
" />
<path d="M127.1586 41.4124
L127.2062 41.4601
" />
<path d="M127.2062 41.4601
L127.2538 41.5553
" />
<path d="M127.2538 41.5553
L127.2538 41.6982
" />
<path d="M127.2538 41.6982
L127.2062 41.7934
" />
<path d="M127.2062 41.7934
L127.1586 41.8410
" />
<path d="M127.1586 41.8410
L127.0633 41.8886
" />
<path d="M127.0633 41.8886
L126.6824 41.8886
" />
<path d="M127.6824 42.3648
L127.6824 41.6982
" />
<path d="M127.6824 41.3648
L127.6348 41.4124
" />
<path d="M127.6348 41.4124
L127.6824 41.4601
" />
<path d="M127.6824 41.4601
L127.7300 41.4124
" />
<path d="M127.7300 41.4124
L127.6824 41.3648
" />
<path d="M127.6824 41.3648
L127.6824 41.4601
" />
<path d="M128.1586 41.9839
L128.9205 41.9839
" />
<path d="M129.3967 42.3648
L129.3967 41.3648
" />
<path d="M129.3967 41.3648
L129.7776 41.3648
" />
<path d="M129.7776 41.3648
L129.8729 41.4124
" />
<path d="M129.8729 41.4124
L129.9205 41.4601
" />
<path d="M129.9205 41.4601
L129.9681 41.5553
" />
<path d="M129.9681 41.5553
L129.9681 41.6982
" />
<path d="M129.9681 41.6982
L129.9205 41.7934
" />
<path d="M129.9205 41.7934
L129.8729 41.8410
" />
<path d="M129.8729 41.8410
L129.7776 41.8886
" />
<path d="M129.7776 41.8886
L129.3967 41.8886
" />
<path d="M130.3967 42.3648
L130.3967 41.6982
" />
<path d="M130.3967 41.3648
L130.3490 41.4124
" />
<path d="M130.3490 41.4124
L130.3967 41.4601
" />
<path d="M130.3967 41.4601
L130.4443 41.4124
" />
<path d="M130.4443 41.4124
L130.3967 41.3648
" />
<path d="M130.3967 41.3648
L130.3967 41.4601
" />
<path d="M131.3014 42.3172
L131.2062 42.3648
" />
<path d="M131.2062 42.3648
L131.0157 42.3648
" />
<path d="M131.0157 42.3648
L130.9205 42.3172
" />
<path d="M130.9205 42.3172
L130.8729 42.2696
" />
<path d="M130.8729 42.2696
L130.8252 42.1743
" />
<path d="M130.8252 42.1743
L130.8252 41.8886
" />
<path d="M130.8252 41.8886
L130.8729 41.7934
" />
<path d="M130.8729 41.7934
L130.9205 41.7458
" />
<path d="M130.9205 41.7458
L131.0157 41.6982
" />
<path d="M131.0157 41.6982
L131.2062 41.6982
" />
<path d="M131.2062 41.6982
L131.3014 41.7458
" />
<path d="M131.8729 42.3648
L131.7776 42.3172
" />
<path d="M131.7776 42.3172
L131.7300 42.2696
" />
<path d="M131.7300 42.2696
L131.6824 42.1743
" />
<path d="M131.6824 42.1743
L131.6824 41.8886
" />
<path d="M131.6824 41.8886
L131.7300 41.7934
" />
<path d="M131.7300 41.7934
L131.7776 41.7458
" />
<path d="M131.7776 41.7458
L131.8729 41.6982
" />
<path d="M131.8729 41.6982
L132.0157 41.6982
" />
<path d="M132.0157 41.6982
L132.1110 41.7458
" />
<path d="M132.1110 41.7458
L132.1586 41.7934
" />
<path d="M132.1586 41.7934
L132.2062 41.8886
" />
<path d="M132.2062 41.8886
L132.2062 42.1743
" />
<path d="M132.2062 42.1743
L132.1586 42.2696
" />
<path d="M132.1586 42.2696
L132.1110 42.3172
" />
<path d="M132.1110 42.3172
L132.0157 42.3648
" />
<path d="M132.0157 42.3648
L131.8729 42.3648
" />
</g><text x="125.7300" y="44.9500"
textLength="2.0595" font-size="1.3333" lengthAdjust="spacingAndGlyphs"
text-anchor="middle" opacity="0">A1</text>
<g class="stroked-text"><desc>A1</desc>
<path d="M125.0157 44.6191
L125.4919 44.6191
" />
<path d="M124.9205 44.9048
L125.2538 43.9048
" />
<path d="M125.2538 43.9048
L125.5871 44.9048
" />
<path d="M126.4443 44.9048
L125.8729 44.9048
" />
<path d="M126.1586 44.9048
L126.1586 43.9048
" />
<path d="M126.1586 43.9048
L126.0633 44.0477
" />
<path d="M126.0633 44.0477
L125.9681 44.1429
" />
<path d="M125.9681 44.1429
L125.8729 44.1905
" />
</g><text x="147.3200" y="82.0100"
textLength="12.4881" font-size="1.3333" lengthAdjust="spacingAndGlyphs"
text-anchor="middle" opacity="0">Conn_01x04_Pin</text>
<g class="stroked-text"><desc>Conn_01x04_Pin</desc>
<path d="M142.0105 81.8696
L141.9629 81.9172
" />
<path d="M141.9629 81.9172
L141.8200 81.9648
" />
<path d="M141.8200 81.9648
L141.7248 81.9648
" />
<path d="M141.7248 81.9648
L141.5819 81.9172
" />
<path d="M141.5819 81.9172
L141.4867 81.8220
" />
<path d="M141.4867 81.8220
L141.4390 81.7267
" />
<path d="M141.4390 81.7267
L141.3914 81.5362
" />
<path d="M141.3914 81.5362
L141.3914 81.3934
" />
<path d="M141.3914 81.3934
L141.4390 81.2029
" />
<path d="M141.4390 81.2029
L141.4867 81.1077
" />
<path d="M141.4867 81.1077
L141.5819 81.0124
" />
<path d="M141.5819 81.0124
L141.7248 80.9648
" />
<path d="M141.7248 80.9648
L141.8200 80.9648
" />
<path d="M141.8200 80.9648
L141.9629 81.0124
" />
<path d="M141.9629 81.0124
L142.0105 81.0601
" />
<path d="M142.5819 81.9648
L142.4867 81.9172
" />
<path d="M142.4867 81.9172
L142.4390 81.8696
" />
<path d="M142.4390 81.8696
L142.3914 81.7743
" />
<path d="M142.3914 81.7743
L142.3914 81.4886
" />
<path d="M142.3914 81.4886
L142.4390 81.3934
" />
<path d="M142.4390 81.3934
L142.4867 81.3458
" />
<path d="M142.4867 81.3458
L142.5819 81.2982
" />
<path d="M142.5819 81.2982
L142.7248 81.2982
" />
<path d="M142.7248 81.2982
L142.8200 81.3458
" />
<path d="M142.8200 81.3458
L142.8676 81.3934
" />
<path d="M142.8676 81.3934
L142.9152 81.4886
" />
<path d="M142.9152 81.4886
L142.9152 81.7743
" />
<path d="M142.9152 81.7743
L142.8676 81.8696
" />
<path d="M142.8676 81.8696
L142.8200 81.9172
" />
<path d="M142.8200 81.9172
L142.7248 81.9648
" />
<path d="M142.7248 81.9648
L142.5819 81.9648
" />
<path d="M143.3438 81.2982
L143.3438 81.9648
" />
<path d="M143.3438 81.3934
L143.3914 81.3458
" />
<path d="M143.3914 81.3458
L143.4867 81.2982
" />
<path d="M143.4867 81.2982
L143.6295 81.2982
" />
<path d="M143.6295 81.2982
L143.7248 81.3458
" />
<path d="M143.7248 81.3458
L143.7724 81.4410
" />
<path d="M143.7724 81.4410
L143.7724 81.9648
" />
<path d="M144.2486 81.2982
L144.2486 81.9648
" />
<path d="M144.2486 81.3934
L144.2962 81.3458
" />
<path d="M144.2962 81.3458
L144.3914 81.2982
" />
<path d="M144.3914 81.2982
L144.5343 81.2982
" />
<path d="M144.5343 81.2982
L144.6295 81.3458
" />
<path d="M144.6295 81.3458
L144.6771 81.4410
" />
<path d="M144.6771 81.4410
L144.6771 81.9648
" />
<path d="M144.9152 82.0601
L145.6771 82.0601
" />
<path d="M146.1057 80.9648
L146.2010 80.9648
" />
<path d="M146.2010 80.9648
L146.2962 81.0124
" />
<path d="M146.2962 81.0124
L146.3438 81.0601
" />
<path d="M146.3438 81.0601
L146.3914 81.1553
" />
<path d="M146.3914 81.1553
L146.4390 81.3458
" />
<path d="M146.4390 81.3458
L146.4390 81.5839
" />
<path d="M146.4390 81.5839
L146.3914 81.7743
" />
<path d="M146.3914 81.7743
L146.3438 81.8696
" />
<path d="M146.3438 81.8696
L146.2962 81.9172
" />
<path d="M146.2962 81.9172
L146.2010 81.9648
" />
<path d="M146.2010 81.9648
L146.1057 81.9648
" />
<path d="M146.1057 81.9648
L146.0105 81.9172
" />
<path d="M146.0105 81.9172
L145.9629 81.8696
" />
<path d="M145.9629 81.8696
L145.9152 81.7743
" />
<path d="M145.9152 81.7743
L145.8676 81.5839
" />
<path d="M145.8676 81.5839
L145.8676 81.3458
" />
<path d="M145.8676 81.3458
L145.9152 81.1553
" />
<path d="M145.9152 81.1553
L145.9629 81.0601
" />
<path d="M145.9629 81.0601
L146.0105 81.0124
" />
<path d="M146.0105 81.0124
L146.1057 80.9648
" />
<path d="M147.3914 81.9648
L146.8200 81.9648
" />
<path d="M147.1057 81.9648
L147.1057 80.9648
" />
<path d="M147.1057 80.9648
L147.0105 81.1077
" />
<path d="M147.0105 81.1077
L146.9152 81.2029
" />
<path d="M146.9152 81.2029
L146.8200 81.2505
" />
<path d="M147.7248 81.9648
L148.2486 81.2982
" />
<path d="M147.7248 81.2982
L148.2486 81.9648
" />
<path d="M148.8200 80.9648
L148.9152 80.9648
" />
<path d="M148.9152 80.9648
L149.0105 81.0124
" />
<path d="M149.0105 81.0124
L149.0581 81.0601
" />
<path d="M149.0581 81.0601
L149.1057 81.1553
" />
<path d="M149.1057 81.1553
L149.1533 81.3458
" />
<path d="M149.1533 81.3458
L149.1533 81.5839
" />
<path d="M149.1533 81.5839
L149.1057 81.7743
" />
<path d="M149.1057 81.7743
L149.0581 81.8696
" />
<path d="M149.0581 81.8696
L149.0105 81.9172
" />
<path d="M149.0105 81.9172
L148.9152 81.9648
" />
<path d="M148.9152 81.9648
L148.8200 81.9648
" />
<path d="M148.8200 81.9648
L148.7248 81.9172
" />
<path d="M148.7248 81.9172
L148.6771 81.8696
" />
<path d="M148.6771 81.8696
L148.6295 81.7743
" />
<path d="M148.6295 81.7743
L148.5819 81.5839
" />
<path d="M148.5819 81.5839
L148.5819 81.3458
" />
<path d="M148.5819 81.3458
L148.6295 81.1553
" />
<path d="M148.6295 81.1553
L148.6771 81.0601
" />
<path d="M148.6771 81.0601
L148.7248 81.0124
" />
<path d="M148.7248 81.0124
L148.8200 80.9648
" />
<path d="M150.0105 81.2982
L150.0105 81.9648
" />
<path d="M149.7724 80.9172
L149.5343 81.6315
" />
<path d="M149.5343 81.6315
L150.1533 81.6315
" />
<path d="M150.2962 82.0601
L151.0581 82.0601
" />
<path d="M151.2962 81.9648
L151.2962 80.9648
" />
<path d="M151.2962 80.9648
L151.6771 80.9648
" />
<path d="M151.6771 80.9648
L151.7724 81.0124
" />
<path d="M151.7724 81.0124
L151.8200 81.0601
" />
<path d="M151.8200 81.0601
L151.8676 81.1553
" />
<path d="M151.8676 81.1553
L151.8676 81.2982
" />
<path d="M151.8676 81.2982
L151.8200 81.3934
" />
<path d="M151.8200 81.3934
L151.7724 81.4410
" />
<path d="M151.7724 81.4410
L151.6771 81.4886
" />
<path d="M151.6771 81.4886
L151.2962 81.4886
" />
<path d="M152.2962 81.9648
L152.2962 81.2982
" />
<path d="M152.2962 80.9648
L152.2486 81.0124
" />
<path d="M152.2486 81.0124
L152.2962 81.0601
" />
<path d="M152.2962 81.0601
L152.3438 81.0124
" />
<path d="M152.3438 81.0124
L152.2962 80.9648
" />
<path d="M152.2962 80.9648
L152.2962 81.0601
" />
<path d="M152.7724 81.2982
L152.7724 81.9648
" />
<path d="M152.7724 81.3934
L152.8200 81.3458
" />
<path d="M152.8200 81.3458
L152.9152 81.2982
" />
<path d="M152.9152 81.2982
L153.0581 81.2982
" />
<path d="M153.0581 81.2982
L153.1533 81.3458
" />
<path d="M153.1533 81.3458
L153.2010 81.4410
" />
<path d="M153.2010 81.4410
L153.2010 81.9648
" />
</g><g transform="rotate(-90.000000 147.3200 74.9300)">
<text x="147.3200" y="75.4300"
textLength="1.9643" font-size="1.3333" lengthAdjust="spacingAndGlyphs"
text-anchor="middle" opacity="0">J1</text>
</g>
<g class="stroked-text"><desc>J1</desc>
<path d="M146.7748 75.2633
L147.4891 75.2633
" />
<path d="M147.4891 75.2633
L147.6320 75.3110
" />
<path d="M147.6320 75.3110
L147.7272 75.4062
" />
<path d="M147.7272 75.4062
L147.7748 75.5490
" />
<path d="M147.7748 75.5490
L147.7748 75.6443
" />
<path d="M147.7748 74.2633
L147.7748 74.8348
" />
<path d="M147.7748 74.5490
L146.7748 74.5490
" />
<path d="M146.7748 74.5490
L146.9177 74.6443
" />
<path d="M146.9177 74.6443
L147.0129 74.7395
" />
<path d="M147.0129 74.7395
L147.0605 74.8348
" />
</g><g transform="rotate(-90.000000 107.1000 82.5500)">
<text x="107.1000" y="83.0500"
textLength="2.9643" font-size="1.3333" lengthAdjust="spacingAndGlyphs"
text-anchor="middle" opacity="0">LED</text>
</g>
<g class="stroked-text"><desc>LED</desc>
<path d="M107.5548 83.1929
L107.5548 83.6690
" />
<path d="M107.5548 83.6690
L106.5548 83.6690
" />
<path d="M107.0310 82.8595
L107.0310 82.5262
" />
<path d="M107.5548 82.3833
L107.5548 82.8595
" />
<path d="M107.5548 82.8595
L106.5548 82.8595
" />
<path d="M106.5548 82.8595
L106.5548 82.3833
" />
<path d="M107.5548 81.9548
L106.5548 81.9548
" />
<path d="M106.5548 81.9548
L106.5548 81.7167
" />
<path d="M106.5548 81.7167
L106.6024 81.5738
" />
<path d="M106.6024 81.5738
L106.6977 81.4786
" />
<path d="M106.6977 81.4786
L106.7929 81.4310
" />
<path d="M106.7929 81.4310
L106.9834 81.3833
" />
<path d="M106.9834 81.3833
L107.1262 81.3833
" />
<path d="M107.1262 81.3833
L107.3167 81.4310
" />
<path d="M107.3167 81.4310
L107.4120 81.4786
" />
<path d="M107.4120 81.4786
L107.5072 81.5738
" />
<path d="M107.5072 81.5738
L107.5548 81.7167
" />
<path d="M107.5548 81.7167
L107.5548 81.9548
" />
</g><text x="106.6800" y="65.9200"
textLength="3.1071" font-size="1.3333" lengthAdjust="spacingAndGlyphs"
text-anchor="middle" opacity="0">150</text>
<g class="stroked-text"><desc>150</desc>
<path d="M106.0133 65.8748
L105.4419 65.8748
" />
<path d="M105.7276 65.8748
L105.7276 64.8748
" />
<path d="M105.7276 64.8748
L105.6324 65.0177
" />
<path d="M105.6324 65.0177
L105.5371 65.1129
" />
<path d="M105.5371 65.1129
L105.4419 65.1605
" />
<path d="M106.9181 64.8748
L106.4419 64.8748
" />
<path d="M106.4419 64.8748
L106.3943 65.3510
" />
<path d="M106.3943 65.3510
L106.4419 65.3034
" />
<path d="M106.4419 65.3034
L106.5371 65.2558
" />
<path d="M106.5371 65.2558
L106.7752 65.2558
" />
<path d="M106.7752 65.2558
L106.8705 65.3034
" />
<path d="M106.8705 65.3034
L106.9181 65.3510
" />
<path d="M106.9181 65.3510
L106.9657 65.4462
" />
<path d="M106.9657 65.4462
L106.9657 65.6843
" />
<path d="M106.9657 65.6843
L106.9181 65.7796
" />
<path d="M106.9181 65.7796
L106.8705 65.8272
" />
<path d="M106.8705 65.8272
L106.7752 65.8748
" />
<path d="M106.7752 65.8748
L106.5371 65.8748
" />
<path d="M106.5371 65.8748
L106.4419 65.8272
" />
<path d="M106.4419 65.8272
L106.3943 65.7796
" />
<path d="M107.5848 64.8748
L107.6800 64.8748
" />
<path d="M107.6800 64.8748
L107.7752 64.9224
" />
<path d="M107.7752 64.9224
L107.8229 64.9701
" />
<path d="M107.8229 64.9701
L107.8705 65.0653
" />
<path d="M107.8705 65.0653
L107.9181 65.2558
" />
<path d="M107.9181 65.2558
L107.9181 65.4939
" />
<path d="M107.9181 65.4939
L107.8705 65.6843
" />
<path d="M107.8705 65.6843
L107.8229 65.7796
" />
<path d="M107.8229 65.7796
L107.7752 65.8272
" />
<path d="M107.7752 65.8272
L107.6800 65.8748
" />
<path d="M107.6800 65.8748
L107.5848 65.8748
" />
<path d="M107.5848 65.8748
L107.4895 65.8272
" />
<path d="M107.4895 65.8272
L107.4419 65.7796
" />
<path d="M107.4419 65.7796
L107.3943 65.6843
" />
<path d="M107.3943 65.6843
L107.3467 65.4939
" />
<path d="M107.3467 65.4939
L107.3467 65.2558
" />
<path d="M107.3467 65.2558
L107.3943 65.0653
" />
<path d="M107.3943 65.0653
L107.4419 64.9701
" />
<path d="M107.4419 64.9701
L107.4895 64.9224
" />
<path d="M107.4895 64.9224
L107.5848 64.8748
" />
</g></g>
<g style="fill:#000000; fill-opacity:0.0; 
stroke:#000000; stroke-width:0.1080; stroke-opacity:1; 
stroke-linecap:round; stroke-linejoin:round;">
<text x="106.6800" y="63.8600"
textLength="1.5857" font-size="0.9600" lengthAdjust="spacingAndGlyphs"
text-anchor="middle" opacity="0">R1</text>
<g class="stroked-text"><desc>R1</desc>
<path d="M106.5600 63.8275
L106.3200 63.4846
" />
<path d="M106.1486 63.8275
L106.1486 63.1075
" />
<path d="M106.1486 63.1075
L106.4229 63.1075
" />
<path d="M106.4229 63.1075
L106.4914 63.1418
" />
<path d="M106.4914 63.1418
L106.5257 63.1760
" />
<path d="M106.5257 63.1760
L106.5600 63.2446
" />
<path d="M106.5600 63.2446
L106.5600 63.3475
" />
<path d="M106.5600 63.3475
L106.5257 63.4160
" />
<path d="M106.5257 63.4160
L106.4914 63.4503
" />
<path d="M106.4914 63.4503
L106.4229 63.4846
" />
<path d="M106.4229 63.4846
L106.1486 63.4846
" />
<path d="M107.2457 63.8275
L106.8343 63.8275
" />
<path d="M107.0400 63.8275
L107.0400 63.1075
" />
<path d="M107.0400 63.1075
L106.9714 63.2103
" />
<path d="M106.9714 63.2103
L106.9029 63.2789
" />
<path d="M106.9029 63.2789
L106.8343 63.3132
" />
</g></g>
<g style="fill:#000000; fill-opacity:0.0; 
stroke:#000000; stroke-width:0.1000; stroke-opacity:1; 
stroke-linecap:round; stroke-linejoin:round;">
<path d="M102.9738 71.3500
L105.3062 71.3500
" />
<path d="M105.3055 71.3506 A1.9000 1.9000 0.0 1 0 102.9738 71.3500" />
<circle cx="104.1400" cy="69.8500" r="1.5000" /> 
<path d="M104.1400 76.2000
L104.8800 76.2000
" />
<path d="M104.8800 75.4000
L104.8800 77.0000
" />
<path d="M104.8800 77.0000
L108.4800 77.0000
" />
<path d="M108.4800 75.4000
L104.8800 75.4000
" />
<path d="M108.4800 77.0000
L108.4800 75.4000
" />
<path d="M109.2200 76.2000
L108.4800 76.2000
" />
<path d="M146.0500 69.8500
L147.9550 69.8500
" />
<path d="M146.0500 80.0100
L146.0500 69.8500
" />
<path d="M147.9550 69.8500
L148.5900 70.4850
" />
<path d="M148.5900 70.4850
L148.5900 80.0100
" />
<path d="M148.5900 80.0100
L146.0500 80.0100
" />
<path d="M102.9738 84.0500
L105.3062 84.0500
" />
<path d="M105.3055 84.0506 A1.9000 1.9000 0.0 1 0 102.9738 84.0500" />
<circle cx="104.1400" cy="82.5500" r="1.5000" /> 
<path d="M104.1400 63.5000
L104.8800 63.5000
" />
<path d="M104.8800 62.7000
L104.8800 64.3000
" />
<path d="M104.8800 64.3000
L108.4800 64.3000
" />
<path d="M108.4800 62.7000
L104.8800 62.7000
" />
<path d="M108.4800 64.3000
L108.4800 62.7000
" />
<path d="M109.2200 63.5000
L108.4800 63.5000
" />
<g >
</g>
<g >
</g>
<g >
</g>
<g >
</g>
<g >
</g>
<g >
</g>
<g >
</g>
<g >
</g>
<g >
</g>
<g >
</g>
<g >
</g>
<g >
</g>
<g >
</g>
</g> 
</svg>
