<?xml version="1.0" standalone="no"?>
 <!DOCTYPE svg PUBLIC "-//W3C//DTD SVG 1.1//EN" 
 "http://www.w3.org/Graphics/SVG/1.1/DTD/svg11.dtd"> 
<svg
  xmlns:svg="http://www.w3.org/2000/svg"
  xmlns="http://www.w3.org/2000/svg"
  xmlns:xlink="http://www.w3.org/1999/xlink"
  version="1.1"
  width="297.0022mm" height="210.0072mm" viewBox="0.0000 0.0000 297.0022 210.0072">
<title>SVG Image created as template_project_kicad-F_Silkscreen.svg date 2023/12/14 10:00:39 </title>
  <desc>Image generated by PCBNEW </desc>
<g style="fill:#000000; fill-opacity:1.0000;stroke:#000000; stroke-opacity:1.0000;
stroke-linecap:round; stroke-linejoin:round;"
 transform="translate(0 0) scale(1 1)">
</g>
<g style="fill:#000000; fill-opacity:0.0; 
stroke:#000000; stroke-width:0.0000; stroke-opacity:1; 
stroke-linecap:round; stroke-linejoin:round;">
</g>
<g style="fill:#000000; fill-opacity:0.0; 
stroke:#000000; stroke-width:0.1500; stroke-opacity:1; 
stroke-linecap:round; stroke-linejoin:round;">
<text x="109.2200" y="78.7400"
textLength="3.2024" font-size="1.3333" lengthAdjust="spacingAndGlyphs"
text-anchor="start" opacity="0">GP6</text>
<g class="stroked-text"><desc>GP6</desc>
<path d="M110.0806 77.6574
L109.9853 77.6098
" />
<path d="M109.9853 77.6098
L109.8425 77.6098
" />
<path d="M109.8425 77.6098
L109.6996 77.6574
" />
<path d="M109.6996 77.6574
L109.6044 77.7527
" />
<path d="M109.6044 77.7527
L109.5568 77.8479
" />
<path d="M109.5568 77.8479
L109.5092 78.0384
" />
<path d="M109.5092 78.0384
L109.5092 78.1812
" />
<path d="M109.5092 78.1812
L109.5568 78.3717
" />
<path d="M109.5568 78.3717
L109.6044 78.4670
" />
<path d="M109.6044 78.4670
L109.6996 78.5622
" />
<path d="M109.6996 78.5622
L109.8425 78.6098
" />
<path d="M109.8425 78.6098
L109.9377 78.6098
" />
<path d="M109.9377 78.6098
L110.0806 78.5622
" />
<path d="M110.0806 78.5622
L110.1282 78.5146
" />
<path d="M110.1282 78.5146
L110.1282 78.1812
" />
<path d="M110.1282 78.1812
L109.9377 78.1812
" />
<path d="M110.5568 78.6098
L110.5568 77.6098
" />
<path d="M110.5568 77.6098
L110.9377 77.6098
" />
<path d="M110.9377 77.6098
L111.0330 77.6574
" />
<path d="M111.0330 77.6574
L111.0806 77.7051
" />
<path d="M111.0806 77.7051
L111.1282 77.8003
" />
<path d="M111.1282 77.8003
L111.1282 77.9432
" />
<path d="M111.1282 77.9432
L111.0806 78.0384
" />
<path d="M111.0806 78.0384
L111.0330 78.0860
" />
<path d="M111.0330 78.0860
L110.9377 78.1336
" />
<path d="M110.9377 78.1336
L110.5568 78.1336
" />
<path d="M111.9853 77.6098
L111.7949 77.6098
" />
<path d="M111.7949 77.6098
L111.6996 77.6574
" />
<path d="M111.6996 77.6574
L111.6520 77.7051
" />
<path d="M111.6520 77.7051
L111.5568 77.8479
" />
<path d="M111.5568 77.8479
L111.5092 78.0384
" />
<path d="M111.5092 78.0384
L111.5092 78.4193
" />
<path d="M111.5092 78.4193
L111.5568 78.5146
" />
<path d="M111.5568 78.5146
L111.6044 78.5622
" />
<path d="M111.6044 78.5622
L111.6996 78.6098
" />
<path d="M111.6996 78.6098
L111.8901 78.6098
" />
<path d="M111.8901 78.6098
L111.9853 78.5622
" />
<path d="M111.9853 78.5622
L112.0330 78.5146
" />
<path d="M112.0330 78.5146
L112.0806 78.4193
" />
<path d="M112.0806 78.4193
L112.0806 78.1812
" />
<path d="M112.0806 78.1812
L112.0330 78.0860
" />
<path d="M112.0330 78.0860
L111.9853 78.0384
" />
<path d="M111.9853 78.0384
L111.8901 77.9908
" />
<path d="M111.8901 77.9908
L111.6996 77.9908
" />
<path d="M111.6996 77.9908
L111.6044 78.0384
" />
<path d="M111.6044 78.0384
L111.5568 78.0860
" />
<path d="M111.5568 78.0860
L111.5092 78.1812
" />
</g><text x="139.7000" y="78.7400"
textLength="3.2976" font-size="1.3333" lengthAdjust="spacingAndGlyphs"
text-anchor="start" opacity="0">GND</text>
<g class="stroked-text"><desc>GND</desc>
<path d="M140.5606 77.6574
L140.4654 77.6098
" />
<path d="M140.4654 77.6098
L140.3225 77.6098
" />
<path d="M140.3225 77.6098
L140.1796 77.6574
" />
<path d="M140.1796 77.6574
L140.0844 77.7527
" />
<path d="M140.0844 77.7527
L140.0368 77.8479
" />
<path d="M140.0368 77.8479
L139.9892 78.0384
" />
<path d="M139.9892 78.0384
L139.9892 78.1812
" />
<path d="M139.9892 78.1812
L140.0368 78.3717
" />
<path d="M140.0368 78.3717
L140.0844 78.4670
" />
<path d="M140.0844 78.4670
L140.1796 78.5622
" />
<path d="M140.1796 78.5622
L140.3225 78.6098
" />
<path d="M140.3225 78.6098
L140.4177 78.6098
" />
<path d="M140.4177 78.6098
L140.5606 78.5622
" />
<path d="M140.5606 78.5622
L140.6082 78.5146
" />
<path d="M140.6082 78.5146
L140.6082 78.1812
" />
<path d="M140.6082 78.1812
L140.4177 78.1812
" />
<path d="M141.0368 78.6098
L141.0368 77.6098
" />
<path d="M141.0368 77.6098
L141.6082 78.6098
" />
<path d="M141.6082 78.6098
L141.6082 77.6098
" />
<path d="M142.0844 78.6098
L142.0844 77.6098
" />
<path d="M142.0844 77.6098
L142.3225 77.6098
" />
<path d="M142.3225 77.6098
L142.4654 77.6574
" />
<path d="M142.4654 77.6574
L142.5606 77.7527
" />
<path d="M142.5606 77.7527
L142.6082 77.8479
" />
<path d="M142.6082 77.8479
L142.6558 78.0384
" />
<path d="M142.6558 78.0384
L142.6558 78.1812
" />
<path d="M142.6558 78.1812
L142.6082 78.3717
" />
<path d="M142.6082 78.3717
L142.5606 78.4670
" />
<path d="M142.5606 78.4670
L142.4654 78.5622
" />
<path d="M142.4654 78.5622
L142.3225 78.6098
" />
<path d="M142.3225 78.6098
L142.0844 78.6098
" />
</g><text x="139.7000" y="76.2000"
textLength="4.1548" font-size="1.3333" lengthAdjust="spacingAndGlyphs"
text-anchor="start" opacity="0">GP21</text>
<g class="stroked-text"><desc>GP21</desc>
<path d="M140.5606 75.1174
L140.4654 75.0698
" />
<path d="M140.4654 75.0698
L140.3225 75.0698
" />
<path d="M140.3225 75.0698
L140.1796 75.1174
" />
<path d="M140.1796 75.1174
L140.0844 75.2127
" />
<path d="M140.0844 75.2127
L140.0368 75.3079
" />
<path d="M140.0368 75.3079
L139.9892 75.4984
" />
<path d="M139.9892 75.4984
L139.9892 75.6412
" />
<path d="M139.9892 75.6412
L140.0368 75.8317
" />
<path d="M140.0368 75.8317
L140.0844 75.9270
" />
<path d="M140.0844 75.9270
L140.1796 76.0222
" />
<path d="M140.1796 76.0222
L140.3225 76.0698
" />
<path d="M140.3225 76.0698
L140.4177 76.0698
" />
<path d="M140.4177 76.0698
L140.5606 76.0222
" />
<path d="M140.5606 76.0222
L140.6082 75.9746
" />
<path d="M140.6082 75.9746
L140.6082 75.6412
" />
<path d="M140.6082 75.6412
L140.4177 75.6412
" />
<path d="M141.0368 76.0698
L141.0368 75.0698
" />
<path d="M141.0368 75.0698
L141.4177 75.0698
" />
<path d="M141.4177 75.0698
L141.5130 75.1174
" />
<path d="M141.5130 75.1174
L141.5606 75.1651
" />
<path d="M141.5606 75.1651
L141.6082 75.2603
" />
<path d="M141.6082 75.2603
L141.6082 75.4032
" />
<path d="M141.6082 75.4032
L141.5606 75.4984
" />
<path d="M141.5606 75.4984
L141.5130 75.5460
" />
<path d="M141.5130 75.5460
L141.4177 75.5936
" />
<path d="M141.4177 75.5936
L141.0368 75.5936
" />
<path d="M141.9892 75.1651
L142.0368 75.1174
" />
<path d="M142.0368 75.1174
L142.1320 75.0698
" />
<path d="M142.1320 75.0698
L142.3701 75.0698
" />
<path d="M142.3701 75.0698
L142.4654 75.1174
" />
<path d="M142.4654 75.1174
L142.5130 75.1651
" />
<path d="M142.5130 75.1651
L142.5606 75.2603
" />
<path d="M142.5606 75.2603
L142.5606 75.3555
" />
<path d="M142.5606 75.3555
L142.5130 75.4984
" />
<path d="M142.5130 75.4984
L141.9415 76.0698
" />
<path d="M141.9415 76.0698
L142.5606 76.0698
" />
<path d="M143.5130 76.0698
L142.9415 76.0698
" />
<path d="M143.2273 76.0698
L143.2273 75.0698
" />
<path d="M143.2273 75.0698
L143.1320 75.2127
" />
<path d="M143.1320 75.2127
L143.0368 75.3079
" />
<path d="M143.0368 75.3079
L142.9415 75.3555
" />
</g><text x="139.7000" y="73.6600"
textLength="3.2976" font-size="1.3333" lengthAdjust="spacingAndGlyphs"
text-anchor="start" opacity="0">GND</text>
<g class="stroked-text"><desc>GND</desc>
<path d="M140.5606 72.5774
L140.4654 72.5298
" />
<path d="M140.4654 72.5298
L140.3225 72.5298
" />
<path d="M140.3225 72.5298
L140.1796 72.5774
" />
<path d="M140.1796 72.5774
L140.0844 72.6727
" />
<path d="M140.0844 72.6727
L140.0368 72.7679
" />
<path d="M140.0368 72.7679
L139.9892 72.9584
" />
<path d="M139.9892 72.9584
L139.9892 73.1012
" />
<path d="M139.9892 73.1012
L140.0368 73.2917
" />
<path d="M140.0368 73.2917
L140.0844 73.3870
" />
<path d="M140.0844 73.3870
L140.1796 73.4822
" />
<path d="M140.1796 73.4822
L140.3225 73.5298
" />
<path d="M140.3225 73.5298
L140.4177 73.5298
" />
<path d="M140.4177 73.5298
L140.5606 73.4822
" />
<path d="M140.5606 73.4822
L140.6082 73.4346
" />
<path d="M140.6082 73.4346
L140.6082 73.1012
" />
<path d="M140.6082 73.1012
L140.4177 73.1012
" />
<path d="M141.0368 73.5298
L141.0368 72.5298
" />
<path d="M141.0368 72.5298
L141.6082 73.5298
" />
<path d="M141.6082 73.5298
L141.6082 72.5298
" />
<path d="M142.0844 73.5298
L142.0844 72.5298
" />
<path d="M142.0844 72.5298
L142.3225 72.5298
" />
<path d="M142.3225 72.5298
L142.4654 72.5774
" />
<path d="M142.4654 72.5774
L142.5606 72.6727
" />
<path d="M142.5606 72.6727
L142.6082 72.7679
" />
<path d="M142.6082 72.7679
L142.6558 72.9584
" />
<path d="M142.6558 72.9584
L142.6558 73.1012
" />
<path d="M142.6558 73.1012
L142.6082 73.2917
" />
<path d="M142.6082 73.2917
L142.5606 73.3870
" />
<path d="M142.5606 73.3870
L142.4654 73.4822
" />
<path d="M142.4654 73.4822
L142.3225 73.5298
" />
<path d="M142.3225 73.5298
L142.0844 73.5298
" />
</g><text x="109.2200" y="66.0400"
textLength="3.2024" font-size="1.3333" lengthAdjust="spacingAndGlyphs"
text-anchor="start" opacity="0">GP2</text>
<g class="stroked-text"><desc>GP2</desc>
<path d="M110.0806 64.9574
L109.9853 64.9098
" />
<path d="M109.9853 64.9098
L109.8425 64.9098
" />
<path d="M109.8425 64.9098
L109.6996 64.9574
" />
<path d="M109.6996 64.9574
L109.6044 65.0527
" />
<path d="M109.6044 65.0527
L109.5568 65.1479
" />
<path d="M109.5568 65.1479
L109.5092 65.3384
" />
<path d="M109.5092 65.3384
L109.5092 65.4812
" />
<path d="M109.5092 65.4812
L109.5568 65.6717
" />
<path d="M109.5568 65.6717
L109.6044 65.7670
" />
<path d="M109.6044 65.7670
L109.6996 65.8622
" />
<path d="M109.6996 65.8622
L109.8425 65.9098
" />
<path d="M109.8425 65.9098
L109.9377 65.9098
" />
<path d="M109.9377 65.9098
L110.0806 65.8622
" />
<path d="M110.0806 65.8622
L110.1282 65.8146
" />
<path d="M110.1282 65.8146
L110.1282 65.4812
" />
<path d="M110.1282 65.4812
L109.9377 65.4812
" />
<path d="M110.5568 65.9098
L110.5568 64.9098
" />
<path d="M110.5568 64.9098
L110.9377 64.9098
" />
<path d="M110.9377 64.9098
L111.0330 64.9574
" />
<path d="M111.0330 64.9574
L111.0806 65.0051
" />
<path d="M111.0806 65.0051
L111.1282 65.1003
" />
<path d="M111.1282 65.1003
L111.1282 65.2432
" />
<path d="M111.1282 65.2432
L111.0806 65.3384
" />
<path d="M111.0806 65.3384
L111.0330 65.3860
" />
<path d="M111.0330 65.3860
L110.9377 65.4336
" />
<path d="M110.9377 65.4336
L110.5568 65.4336
" />
<path d="M111.5092 65.0051
L111.5568 64.9574
" />
<path d="M111.5568 64.9574
L111.6520 64.9098
" />
<path d="M111.6520 64.9098
L111.8901 64.9098
" />
<path d="M111.8901 64.9098
L111.9853 64.9574
" />
<path d="M111.9853 64.9574
L112.0330 65.0051
" />
<path d="M112.0330 65.0051
L112.0806 65.1003
" />
<path d="M112.0806 65.1003
L112.0806 65.1955
" />
<path d="M112.0806 65.1955
L112.0330 65.3384
" />
<path d="M112.0330 65.3384
L111.4615 65.9098
" />
<path d="M111.4615 65.9098
L112.0806 65.9098
" />
</g><text x="139.7000" y="81.2800"
textLength="4.1548" font-size="1.3333" lengthAdjust="spacingAndGlyphs"
text-anchor="start" opacity="0">GP20</text>
<g class="stroked-text"><desc>GP20</desc>
<path d="M140.5606 80.1974
L140.4654 80.1498
" />
<path d="M140.4654 80.1498
L140.3225 80.1498
" />
<path d="M140.3225 80.1498
L140.1796 80.1974
" />
<path d="M140.1796 80.1974
L140.0844 80.2927
" />
<path d="M140.0844 80.2927
L140.0368 80.3879
" />
<path d="M140.0368 80.3879
L139.9892 80.5784
" />
<path d="M139.9892 80.5784
L139.9892 80.7212
" />
<path d="M139.9892 80.7212
L140.0368 80.9117
" />
<path d="M140.0368 80.9117
L140.0844 81.0070
" />
<path d="M140.0844 81.0070
L140.1796 81.1022
" />
<path d="M140.1796 81.1022
L140.3225 81.1498
" />
<path d="M140.3225 81.1498
L140.4177 81.1498
" />
<path d="M140.4177 81.1498
L140.5606 81.1022
" />
<path d="M140.5606 81.1022
L140.6082 81.0546
" />
<path d="M140.6082 81.0546
L140.6082 80.7212
" />
<path d="M140.6082 80.7212
L140.4177 80.7212
" />
<path d="M141.0368 81.1498
L141.0368 80.1498
" />
<path d="M141.0368 80.1498
L141.4177 80.1498
" />
<path d="M141.4177 80.1498
L141.5130 80.1974
" />
<path d="M141.5130 80.1974
L141.5606 80.2451
" />
<path d="M141.5606 80.2451
L141.6082 80.3403
" />
<path d="M141.6082 80.3403
L141.6082 80.4832
" />
<path d="M141.6082 80.4832
L141.5606 80.5784
" />
<path d="M141.5606 80.5784
L141.5130 80.6260
" />
<path d="M141.5130 80.6260
L141.4177 80.6736
" />
<path d="M141.4177 80.6736
L141.0368 80.6736
" />
<path d="M141.9892 80.2451
L142.0368 80.1974
" />
<path d="M142.0368 80.1974
L142.1320 80.1498
" />
<path d="M142.1320 80.1498
L142.3701 80.1498
" />
<path d="M142.3701 80.1498
L142.4654 80.1974
" />
<path d="M142.4654 80.1974
L142.5130 80.2451
" />
<path d="M142.5130 80.2451
L142.5606 80.3403
" />
<path d="M142.5606 80.3403
L142.5606 80.4355
" />
<path d="M142.5606 80.4355
L142.5130 80.5784
" />
<path d="M142.5130 80.5784
L141.9415 81.1498
" />
<path d="M141.9415 81.1498
L142.5606 81.1498
" />
<path d="M143.1796 80.1498
L143.2749 80.1498
" />
<path d="M143.2749 80.1498
L143.3701 80.1974
" />
<path d="M143.3701 80.1974
L143.4177 80.2451
" />
<path d="M143.4177 80.2451
L143.4654 80.3403
" />
<path d="M143.4654 80.3403
L143.5130 80.5308
" />
<path d="M143.5130 80.5308
L143.5130 80.7689
" />
<path d="M143.5130 80.7689
L143.4654 80.9593
" />
<path d="M143.4654 80.9593
L143.4177 81.0546
" />
<path d="M143.4177 81.0546
L143.3701 81.1022
" />
<path d="M143.3701 81.1022
L143.2749 81.1498
" />
<path d="M143.2749 81.1498
L143.1796 81.1498
" />
<path d="M143.1796 81.1498
L143.0844 81.1022
" />
<path d="M143.0844 81.1022
L143.0368 81.0546
" />
<path d="M143.0368 81.0546
L142.9892 80.9593
" />
<path d="M142.9892 80.9593
L142.9415 80.7689
" />
<path d="M142.9415 80.7689
L142.9415 80.5308
" />
<path d="M142.9415 80.5308
L142.9892 80.3403
" />
<path d="M142.9892 80.3403
L143.0368 80.2451
" />
<path d="M143.0368 80.2451
L143.0844 80.1974
" />
<path d="M143.0844 80.1974
L143.1796 80.1498
" />
</g><text x="104.1400" y="92.8200"
textLength="4.5357" font-size="1.3333" lengthAdjust="spacingAndGlyphs"
text-anchor="middle" opacity="0">REF**</text>
<g class="stroked-text"><desc>REF**</desc>
<path d="M102.8067 92.7748
L102.4733 92.2986
" />
<path d="M102.2352 92.7748
L102.2352 91.7748
" />
<path d="M102.2352 91.7748
L102.6162 91.7748
" />
<path d="M102.6162 91.7748
L102.7114 91.8224
" />
<path d="M102.7114 91.8224
L102.7590 91.8701
" />
<path d="M102.7590 91.8701
L102.8067 91.9653
" />
<path d="M102.8067 91.9653
L102.8067 92.1082
" />
<path d="M102.8067 92.1082
L102.7590 92.2034
" />
<path d="M102.7590 92.2034
L102.7114 92.2510
" />
<path d="M102.7114 92.2510
L102.6162 92.2986
" />
<path d="M102.6162 92.2986
L102.2352 92.2986
" />
<path d="M103.2352 92.2510
L103.5686 92.2510
" />
<path d="M103.7114 92.7748
L103.2352 92.7748
" />
<path d="M103.2352 92.7748
L103.2352 91.7748
" />
<path d="M103.2352 91.7748
L103.7114 91.7748
" />
<path d="M104.4733 92.2510
L104.1400 92.2510
" />
<path d="M104.1400 92.7748
L104.1400 91.7748
" />
<path d="M104.1400 91.7748
L104.6162 91.7748
" />
<path d="M105.1400 91.7748
L105.1400 92.0129
" />
<path d="M104.9019 91.9177
L105.1400 92.0129
" />
<path d="M105.1400 92.0129
L105.3781 91.9177
" />
<path d="M104.9971 92.2034
L105.1400 92.0129
" />
<path d="M105.1400 92.0129
L105.2829 92.2034
" />
<path d="M105.9019 91.7748
L105.9019 92.0129
" />
<path d="M105.6638 91.9177
L105.9019 92.0129
" />
<path d="M105.9019 92.0129
L106.1400 91.9177
" />
<path d="M105.7590 92.2034
L105.9019 92.0129
" />
<path d="M105.9019 92.0129
L106.0448 92.2034
" />
</g><g transform="rotate(-90.000000 101.1800 69.8500)">
<text x="101.1800" y="70.3500"
textLength="3.9167" font-size="1.3333" lengthAdjust="spacingAndGlyphs"
text-anchor="middle" opacity="0">LED1</text>
</g>
<g class="stroked-text"><desc>LED1</desc>
<path d="M101.6348 70.9690
L101.6348 71.4452
" />
<path d="M101.6348 71.4452
L100.6348 71.4452
" />
<path d="M101.1110 70.6357
L101.1110 70.3024
" />
<path d="M101.6348 70.1595
L101.6348 70.6357
" />
<path d="M101.6348 70.6357
L100.6348 70.6357
" />
<path d="M100.6348 70.6357
L100.6348 70.1595
" />
<path d="M101.6348 69.7310
L100.6348 69.7310
" />
<path d="M100.6348 69.7310
L100.6348 69.4929
" />
<path d="M100.6348 69.4929
L100.6824 69.3500
" />
<path d="M100.6824 69.3500
L100.7777 69.2548
" />
<path d="M100.7777 69.2548
L100.8729 69.2071
" />
<path d="M100.8729 69.2071
L101.0634 69.1595
" />
<path d="M101.0634 69.1595
L101.2062 69.1595
" />
<path d="M101.2062 69.1595
L101.3967 69.2071
" />
<path d="M101.3967 69.2071
L101.4920 69.2548
" />
<path d="M101.4920 69.2548
L101.5872 69.3500
" />
<path d="M101.5872 69.3500
L101.6348 69.4929
" />
<path d="M101.6348 69.4929
L101.6348 69.7310
" />
<path d="M101.6348 68.2071
L101.6348 68.7786
" />
<path d="M101.6348 68.4929
L100.6348 68.4929
" />
<path d="M100.6348 68.4929
L100.7777 68.5881
" />
<path d="M100.7777 68.5881
L100.8729 68.6833
" />
<path d="M100.8729 68.6833
L100.9205 68.7786
" />
</g><text x="106.6800" y="74.7800"
textLength="2.2024" font-size="1.3333" lengthAdjust="spacingAndGlyphs"
text-anchor="middle" opacity="0">R2</text>
<g class="stroked-text"><desc>R2</desc>
<path d="M106.5133 74.7348
L106.1800 74.2586
" />
<path d="M105.9419 74.7348
L105.9419 73.7348
" />
<path d="M105.9419 73.7348
L106.3229 73.7348
" />
<path d="M106.3229 73.7348
L106.4181 73.7824
" />
<path d="M106.4181 73.7824
L106.4657 73.8301
" />
<path d="M106.4657 73.8301
L106.5133 73.9253
" />
<path d="M106.5133 73.9253
L106.5133 74.0682
" />
<path d="M106.5133 74.0682
L106.4657 74.1634
" />
<path d="M106.4657 74.1634
L106.4181 74.2110
" />
<path d="M106.4181 74.2110
L106.3229 74.2586
" />
<path d="M106.3229 74.2586
L105.9419 74.2586
" />
<path d="M106.8943 73.8301
L106.9419 73.7824
" />
<path d="M106.9419 73.7824
L107.0371 73.7348
" />
<path d="M107.0371 73.7348
L107.2752 73.7348
" />
<path d="M107.2752 73.7348
L107.3705 73.7824
" />
<path d="M107.3705 73.7824
L107.4181 73.8301
" />
<path d="M107.4181 73.8301
L107.4657 73.9253
" />
<path d="M107.4657 73.9253
L107.4657 74.0205
" />
<path d="M107.4657 74.0205
L107.4181 74.1634
" />
<path d="M107.4181 74.1634
L106.8467 74.7348
" />
<path d="M106.8467 74.7348
L107.4657 74.7348
" />
</g><text x="147.3200" y="92.8200"
textLength="4.5357" font-size="1.3333" lengthAdjust="spacingAndGlyphs"
text-anchor="middle" opacity="0">REF**</text>
<g class="stroked-text"><desc>REF**</desc>
<path d="M145.9867 92.7748
L145.6533 92.2986
" />
<path d="M145.4152 92.7748
L145.4152 91.7748
" />
<path d="M145.4152 91.7748
L145.7962 91.7748
" />
<path d="M145.7962 91.7748
L145.8914 91.8224
" />
<path d="M145.8914 91.8224
L145.9390 91.8701
" />
<path d="M145.9390 91.8701
L145.9867 91.9653
" />
<path d="M145.9867 91.9653
L145.9867 92.1082
" />
<path d="M145.9867 92.1082
L145.9390 92.2034
" />
<path d="M145.9390 92.2034
L145.8914 92.2510
" />
<path d="M145.8914 92.2510
L145.7962 92.2986
" />
<path d="M145.7962 92.2986
L145.4152 92.2986
" />
<path d="M146.4152 92.2510
L146.7486 92.2510
" />
<path d="M146.8914 92.7748
L146.4152 92.7748
" />
<path d="M146.4152 92.7748
L146.4152 91.7748
" />
<path d="M146.4152 91.7748
L146.8914 91.7748
" />
<path d="M147.6533 92.2510
L147.3200 92.2510
" />
<path d="M147.3200 92.7748
L147.3200 91.7748
" />
<path d="M147.3200 91.7748
L147.7962 91.7748
" />
<path d="M148.3200 91.7748
L148.3200 92.0129
" />
<path d="M148.0819 91.9177
L148.3200 92.0129
" />
<path d="M148.3200 92.0129
L148.5581 91.9177
" />
<path d="M148.1771 92.2034
L148.3200 92.0129
" />
<path d="M148.3200 92.0129
L148.4629 92.2034
" />
<path d="M149.0819 91.7748
L149.0819 92.0129
" />
<path d="M148.8438 91.9177
L149.0819 92.0129
" />
<path d="M149.0819 92.0129
L149.3200 91.9177
" />
<path d="M148.9390 92.2034
L149.0819 92.0129
" />
<path d="M149.0819 92.0129
L149.2248 92.2034
" />
</g><text x="104.1400" y="52.1800"
textLength="4.5357" font-size="1.3333" lengthAdjust="spacingAndGlyphs"
text-anchor="middle" opacity="0">REF**</text>
<g class="stroked-text"><desc>REF**</desc>
<path d="M102.8067 52.1348
L102.4733 51.6586
" />
<path d="M102.2352 52.1348
L102.2352 51.1348
" />
<path d="M102.2352 51.1348
L102.6162 51.1348
" />
<path d="M102.6162 51.1348
L102.7114 51.1824
" />
<path d="M102.7114 51.1824
L102.7590 51.2301
" />
<path d="M102.7590 51.2301
L102.8067 51.3253
" />
<path d="M102.8067 51.3253
L102.8067 51.4682
" />
<path d="M102.8067 51.4682
L102.7590 51.5634
" />
<path d="M102.7590 51.5634
L102.7114 51.6110
" />
<path d="M102.7114 51.6110
L102.6162 51.6586
" />
<path d="M102.6162 51.6586
L102.2352 51.6586
" />
<path d="M103.2352 51.6110
L103.5686 51.6110
" />
<path d="M103.7114 52.1348
L103.2352 52.1348
" />
<path d="M103.2352 52.1348
L103.2352 51.1348
" />
<path d="M103.2352 51.1348
L103.7114 51.1348
" />
<path d="M104.4733 51.6110
L104.1400 51.6110
" />
<path d="M104.1400 52.1348
L104.1400 51.1348
" />
<path d="M104.1400 51.1348
L104.6162 51.1348
" />
<path d="M105.1400 51.1348
L105.1400 51.3729
" />
<path d="M104.9019 51.2777
L105.1400 51.3729
" />
<path d="M105.1400 51.3729
L105.3781 51.2777
" />
<path d="M104.9971 51.5634
L105.1400 51.3729
" />
<path d="M105.1400 51.3729
L105.2829 51.5634
" />
<path d="M105.9019 51.1348
L105.9019 51.3729
" />
<path d="M105.6638 51.2777
L105.9019 51.3729
" />
<path d="M105.9019 51.3729
L106.1400 51.2777
" />
<path d="M105.7590 51.5634
L105.9019 51.3729
" />
<path d="M105.9019 51.3729
L106.0448 51.5634
" />
</g><text x="147.3200" y="52.1800"
textLength="4.5357" font-size="1.3333" lengthAdjust="spacingAndGlyphs"
text-anchor="middle" opacity="0">REF**</text>
<g class="stroked-text"><desc>REF**</desc>
<path d="M145.9867 52.1348
L145.6533 51.6586
" />
<path d="M145.4152 52.1348
L145.4152 51.1348
" />
<path d="M145.4152 51.1348
L145.7962 51.1348
" />
<path d="M145.7962 51.1348
L145.8914 51.1824
" />
<path d="M145.8914 51.1824
L145.9390 51.2301
" />
<path d="M145.9390 51.2301
L145.9867 51.3253
" />
<path d="M145.9867 51.3253
L145.9867 51.4682
" />
<path d="M145.9867 51.4682
L145.9390 51.5634
" />
<path d="M145.9390 51.5634
L145.8914 51.6110
" />
<path d="M145.8914 51.6110
L145.7962 51.6586
" />
<path d="M145.7962 51.6586
L145.4152 51.6586
" />
<path d="M146.4152 51.6110
L146.7486 51.6110
" />
<path d="M146.8914 52.1348
L146.4152 52.1348
" />
<path d="M146.4152 52.1348
L146.4152 51.1348
" />
<path d="M146.4152 51.1348
L146.8914 51.1348
" />
<path d="M147.6533 51.6110
L147.3200 51.6110
" />
<path d="M147.3200 52.1348
L147.3200 51.1348
" />
<path d="M147.3200 51.1348
L147.7962 51.1348
" />
<path d="M148.3200 51.1348
L148.3200 51.3729
" />
<path d="M148.0819 51.2777
L148.3200 51.3729
" />
<path d="M148.3200 51.3729
L148.5581 51.2777
" />
<path d="M148.1771 51.5634
L148.3200 51.3729
" />
<path d="M148.3200 51.3729
L148.4629 51.5634
" />
<path d="M149.0819 51.1348
L149.0819 51.3729
" />
<path d="M148.8438 51.2777
L149.0819 51.3729
" />
<path d="M149.0819 51.3729
L149.3200 51.2777
" />
<path d="M148.9390 51.5634
L149.0819 51.3729
" />
<path d="M149.0819 51.3729
L149.2248 51.5634
" />
</g></g>
<g style="fill:#000000; fill-opacity:0.0; 
stroke:#000000; stroke-width:0.1000; stroke-opacity:1; 
stroke-linecap:round; stroke-linejoin:round;">
<text x="125.7300" y="47.4900"
textLength="1.9095" font-size="1.3333" lengthAdjust="spacingAndGlyphs"
text-anchor="middle" opacity="0">A1</text>
<g class="stroked-text"><desc>A1</desc>
<path d="M125.0157 47.1617
L125.4919 47.1617
" />
<path d="M124.9205 47.4474
L125.2538 46.4474
" />
<path d="M125.2538 46.4474
L125.5871 47.4474
" />
<path d="M126.4443 47.4474
L125.8729 47.4474
" />
<path d="M126.1586 47.4474
L126.1586 46.4474
" />
<path d="M126.1586 46.4474
L126.0633 46.5903
" />
<path d="M126.0633 46.5903
L125.9681 46.6855
" />
<path d="M125.9681 46.6855
L125.8729 46.7331
" />
</g></g>
<g style="fill:#000000; fill-opacity:0.0; 
stroke:#000000; stroke-width:0.1500; stroke-opacity:1; 
stroke-linecap:round; stroke-linejoin:round;">
<text x="147.3200" y="68.8500"
textLength="1.9643" font-size="1.3333" lengthAdjust="spacingAndGlyphs"
text-anchor="middle" opacity="0">J1</text>
<g class="stroked-text"><desc>J1</desc>
<path d="M146.9867 67.8048
L146.9867 68.5191
" />
<path d="M146.9867 68.5191
L146.9390 68.6620
" />
<path d="M146.9390 68.6620
L146.8438 68.7572
" />
<path d="M146.8438 68.7572
L146.7010 68.8048
" />
<path d="M146.7010 68.8048
L146.6057 68.8048
" />
<path d="M147.9867 68.8048
L147.4152 68.8048
" />
<path d="M147.7010 68.8048
L147.7010 67.8048
" />
<path d="M147.7010 67.8048
L147.6057 67.9477
" />
<path d="M147.6057 67.9477
L147.5105 68.0429
" />
<path d="M147.5105 68.0429
L147.4152 68.0905
" />
</g><g transform="rotate(-90.000000 101.1800 82.5500)">
<text x="101.1800" y="83.0500"
textLength="3.9167" font-size="1.3333" lengthAdjust="spacingAndGlyphs"
text-anchor="middle" opacity="0">LED2</text>
</g>
<g class="stroked-text"><desc>LED2</desc>
<path d="M101.6348 83.6690
L101.6348 84.1452
" />
<path d="M101.6348 84.1452
L100.6348 84.1452
" />
<path d="M101.1110 83.3357
L101.1110 83.0024
" />
<path d="M101.6348 82.8595
L101.6348 83.3357
" />
<path d="M101.6348 83.3357
L100.6348 83.3357
" />
<path d="M100.6348 83.3357
L100.6348 82.8595
" />
<path d="M101.6348 82.4310
L100.6348 82.4310
" />
<path d="M100.6348 82.4310
L100.6348 82.1929
" />
<path d="M100.6348 82.1929
L100.6824 82.0500
" />
<path d="M100.6824 82.0500
L100.7777 81.9548
" />
<path d="M100.7777 81.9548
L100.8729 81.9071
" />
<path d="M100.8729 81.9071
L101.0634 81.8595
" />
<path d="M101.0634 81.8595
L101.2062 81.8595
" />
<path d="M101.2062 81.8595
L101.3967 81.9071
" />
<path d="M101.3967 81.9071
L101.4920 81.9548
" />
<path d="M101.4920 81.9548
L101.5872 82.0500
" />
<path d="M101.5872 82.0500
L101.6348 82.1929
" />
<path d="M101.6348 82.1929
L101.6348 82.4310
" />
<path d="M100.7301 81.4786
L100.6824 81.4310
" />
<path d="M100.6824 81.4310
L100.6348 81.3357
" />
<path d="M100.6348 81.3357
L100.6348 81.0976
" />
<path d="M100.6348 81.0976
L100.6824 81.0024
" />
<path d="M100.6824 81.0024
L100.7301 80.9548
" />
<path d="M100.7301 80.9548
L100.8253 80.9071
" />
<path d="M100.8253 80.9071
L100.9205 80.9071
" />
<path d="M100.9205 80.9071
L101.0634 80.9548
" />
<path d="M101.0634 80.9548
L101.6348 81.5262
" />
<path d="M101.6348 81.5262
L101.6348 80.9071
" />
</g><text x="106.6800" y="62.0800"
textLength="2.2024" font-size="1.3333" lengthAdjust="spacingAndGlyphs"
text-anchor="middle" opacity="0">R1</text>
<g class="stroked-text"><desc>R1</desc>
<path d="M106.5133 62.0348
L106.1800 61.5586
" />
<path d="M105.9419 62.0348
L105.9419 61.0348
" />
<path d="M105.9419 61.0348
L106.3229 61.0348
" />
<path d="M106.3229 61.0348
L106.4181 61.0824
" />
<path d="M106.4181 61.0824
L106.4657 61.1301
" />
<path d="M106.4657 61.1301
L106.5133 61.2253
" />
<path d="M106.5133 61.2253
L106.5133 61.3682
" />
<path d="M106.5133 61.3682
L106.4657 61.4634
" />
<path d="M106.4657 61.4634
L106.4181 61.5110
" />
<path d="M106.4181 61.5110
L106.3229 61.5586
" />
<path d="M106.3229 61.5586
L105.9419 61.5586
" />
<path d="M107.4657 62.0348
L106.8943 62.0348
" />
<path d="M107.1800 62.0348
L107.1800 61.0348
" />
<path d="M107.1800 61.0348
L107.0848 61.1777
" />
<path d="M107.0848 61.1777
L106.9895 61.2729
" />
<path d="M106.9895 61.2729
L106.8943 61.3205
" />
</g></g>
<g style="fill:#000000; fill-opacity:0.0; 
stroke:#000000; stroke-width:0.1200; stroke-opacity:1; 
stroke-linecap:round; stroke-linejoin:round;">
<path d="M102.9040 71.4100
L103.0600 71.4100
" />
<path d="M105.2200 71.4100
L105.3760 71.4100
" />
<path d="M103.0614 68.1777 A1.9900 1.9900 0.0 0 0 102.9045 71.4100" />
<path d="M103.0602 68.8089 A1.5000 1.5000 0.0 0 0 103.0600 70.8910" />
<path d="M105.2200 70.8910 A1.5000 1.5000 0.0 0 0 105.2198 68.8089" />
<path d="M105.3755 71.4100 A1.9900 1.9900 0.0 0 0 105.2186 68.1777" />
<path d="M104.7600 75.2800
L108.6000 75.2800
" />
<path d="M104.7600 77.1200
L108.6000 77.1200
" />
<path d="M145.9900 72.3900
L145.9900 80.0700
" />
<path d="M145.9900 72.3900
L148.6500 72.3900
" />
<path d="M145.9900 80.0700
L148.6500 80.0700
" />
<path d="M147.3200 69.7900
L148.6500 69.7900
" />
<path d="M148.6500 69.7900
L148.6500 71.1200
" />
<path d="M148.6500 72.3900
L148.6500 80.0700
" />
<path d="M102.9040 84.1100
L103.0600 84.1100
" />
<path d="M105.2200 84.1100
L105.3760 84.1100
" />
<path d="M103.0614 80.8777 A1.9900 1.9900 0.0 0 0 102.9045 84.1100" />
<path d="M103.0602 81.5089 A1.5000 1.5000 0.0 0 0 103.0600 83.5910" />
<path d="M105.2200 83.5910 A1.5000 1.5000 0.0 0 0 105.2198 81.5089" />
<path d="M105.3755 84.1100 A1.9900 1.9900 0.0 0 0 105.2186 80.8777" />
<path d="M104.7600 62.5800
L108.6000 62.5800
" />
<path d="M104.7600 64.4200
L108.6000 64.4200
" />
<g >
</g>
<g >
</g>
<g >
</g>
<g >
</g>
<g >
</g>
<g >
</g>
<g >
</g>
<g >
</g>
<g >
</g>
<g >
</g>
<g >
</g>
<g >
</g>
<g >
</g>
</g> 
</svg>
